<?xml version="1.0" encoding="utf-8"?>
<!-- Generator: Adobe Illustrator 28.0.0, SVG Export Plug-In . SVG Version: 6.00 Build 0)  -->
<svg version="1.1" id="Layer_1" xmlns="http://www.w3.org/2000/svg" xmlns:xlink="http://www.w3.org/1999/xlink" x="0px" y="0px"
	 viewBox="0 0 107 162" style="enable-background:new 0 0 107 162;" xml:space="preserve">
<style type="text/css">
	.st0{fill:#363636;}
</style>
<g>
	<g>
		<g>
			<path class="st0" d="M20.8,101.8c0,5.2-2.8,5.4-2.8,7.7c0,3.1,3.8,7.9,3.8,13.2c0,1.2-1.5,2.5-3.7,2.5c-5.9,0-4.9-13.7-7.3-13.7
				c-2.7,0,0.7,13.7-4.6,13.7c-3.9,0-4.3-4.5-4.3-7.8c0-1.7,0-3.2,0-4.8c0-2.5,0.1-5.1,0.1-7.7c0-9.6,1.4-11,10.9-11
				C17.7,93.8,20.8,96.2,20.8,101.8z M11.4,100.7c-0.7,0-1,0.1-1,0.9c0,0.5,0,2,0.1,2.5c0,0.3,0.1,0.4,0.2,0.4
				c0.9,0,2.7-1.5,2.7-2.6C13.5,101,12.1,100.7,11.4,100.7z"/>
			<path class="st0" d="M32.6,105.6c0,1.5,0,3.1,0,4.8c0,5.9-0.2,15-3.9,15c-5.6,0-5.9-8.6-5.9-15.9c0-2.5,0.1-5,0.1-6.9
				c0-4.5,1.1-8.3,4.1-8.3C32.5,94.3,32.6,100.3,32.6,105.6z"/>
			<path class="st0" d="M39.2,125.5c-2.8,0-4.9-0.9-4.9-3.9c0-4.8,5.8-5.7,5.8-9.9c0-4.3-4.9-5.4-4.9-9.8c0-4.9,4.2-7.5,10.8-7.5
				c2.7,0,4.5,1.8,4.5,4.2c0,3.4-4.6,2.3-4.6,5.4c0,3.8,4.3,6.4,4.3,10.6C50.2,121.3,45.3,125.5,39.2,125.5z"/>
			<path class="st0" d="M68.9,117.3c0,5-3.5,7.9-8.7,7.9c-7.5,0-8.3-6.8-8.3-14.3c0-1.9,0-3.8,0-5.7c0-7.6,3.1-10.7,9.9-10.7
				c2.5,0,5.6,0.8,5.6,4c0,4.2-7,1.5-7,4.3c0,3,6.1,0.2,6.1,4.5c0,5-6.2,1.3-6.2,5c0,1.3,1.3,1.8,2.6,1.8c1,0,1.9-0.2,2.8-0.2
				C68,113.9,68.9,115.6,68.9,117.3z"/>
			<path class="st0" d="M87.1,94.1c3.4,0,7.3,1.6,7.3,5.7c0,3-2.4,5.2-2.4,7.6c0.9,1.1,2,1.8,3.1,2.8c2.1-0.7,2.2-4.3,5.3-4.3
				c1.5,0,3.5,0.8,3.5,2.5c0,2.9-1.8,5.1-1.8,7.9c0,2.4,4,2.7,4,6.3c0,1.5-0.8,3-2.7,3c-3,0-6.6-2-6.6-2c-2.5,0-5.7,2.1-9,2.1
				c-5.6,0-11.1-2.7-11.1-10.5c0-3.3,3.5-5.7,3.5-7.8c0-1.6-2.3-3-2.3-5.4C77.8,97.3,82.2,94.1,87.1,94.1z M87.6,118.2
				c1.4,0,3.1-0.9,3.2-2.1c-0.5-0.8-2.8-2.8-3.6-3.1c-0.9,0.9-1.2,2.4-1.2,3.8C85.9,117.8,86.7,118.2,87.6,118.2z M86.2,101.7
				c0,0.8,0.3,1.5,0.8,2.1c1.1-0.4,1.4-1.2,1.4-2.3c0-0.6-0.5-1.3-1.1-1.3C86.6,100.2,86.2,100.8,86.2,101.7z"/>
		</g>
		<g>
			<path class="st0" d="M0,146.2c0-6.7,3.4-15.4,12.8-15.4c3.1,0,9.1,2.4,9.1,6.1c0,2.2-2.1,3.3-3.7,3.3c-2.5,0-3.3-1.3-5.8-1.3
				c-2.9,0-4.8,2.6-4.8,6.1c0,3.1,0.7,6.8,3.9,6.8c1.4,0,3.3-0.1,3.3-1.8c0-2.1-3.7,0.8-3.7-3.5c0-2.9,1.8-3.8,3.7-3.8
				c4.2,0,7.5,1.5,7.5,5.8c0,7.3-3.2,13-10.3,13C2.3,161.4,0,153,0,146.2z"/>
			<path class="st0" d="M40.4,161.4c-5.1,0-5.4-11.2-7.4-11.2c-0.6,0-0.7,1.2-0.7,2.5s0.1,2.8,0.1,4.2c0,3.2-1.5,5.2-4.9,5.2
				c-3,0-3.2-2.3-3.2-5.3c0-4,0-8.4,0-12.3c0-3.2,0.1-5.5,0.1-8.3c0-3.4,1.1-5.5,4.6-5.5c5.7,0,13.3,0,13.3,6.8
				c0,4.9-3.2,6.5-3.2,7.6c0,2.7,4.8,7.9,4.8,12.8C44.1,159.5,42.8,161.4,40.4,161.4z M32.2,140.9c1.3,0,2.5-1.5,2.5-2.7
				c0-1-1.1-1.6-2.1-1.6c-0.8,0-0.9,1-0.9,2c0,0.3,0,0.6,0,0.9C31.7,140.3,31.8,140.9,32.2,140.9z"/>
			<path class="st0" d="M55.2,142c0,1.5,0,3.1,0,4.8c0,5.9-0.2,15-3.9,15c-5.6,0-5.9-8.6-5.9-15.9c0-2.5,0.1-5,0.1-6.9
				c0-4.5,1.1-8.3,4.1-8.3C55.1,130.8,55.2,136.7,55.2,142z"/>
			<path class="st0" d="M72,143.9c0.8,0,0.8-1,0.8-1.8c0-1.2-0.1-2.8-0.1-4.4c0-3.4,0.5-7,3.9-7c1.7,0,4.8,1.8,4.8,5.1
				c0,5.9,0,8.4,0,13.7c0,5.5-0.3,12.2-3.5,12.2c-8.1,0-7-12.5-9.6-12.5c-0.8,0-0.9,1.5-0.9,3.7c0,0.4,0,0.7,0,1.1
				c0,3.6-0.2,7.7-4.5,7.7c-5.3,0-5.5-5.9-5.5-11.3c0-3.7,0-6.8,0-10.3c0-4.3,1.2-9,5.3-9C66.2,131,69.5,143.9,72,143.9z"/>
			<path class="st0" d="M90.8,162c-6,0-7-4.4-7-10.2c0-2.6,0.2-5.5,0.2-8.4c0-6.7,0-12.6,6-12.6c9.5,0,16.4,5.7,16.4,16.2
				C106.4,156,100,162,90.8,162z M97.3,145.1c0-1.7-1.8-4-3.4-4c-1.5,0-1.6,0.9-1.6,2.7v5c0,1.2,0,2.3,1,2.3
				C94.9,151,97.3,148.3,97.3,145.1z"/>
		</g>
	</g>
	<g>
		<path class="st0" d="M76.7,13.5c-5.3,0-10.6,0-15.9,0c-0.6,0-1.2,0.4-1.8,0.6c0.5,0.4,0.9,0.9,1.5,1.2c6.8,3.1,10.7,8.3,11.2,15.9
			c0.1,1.4,0.7,2.1,1.9,2.6c2.5,1.1,4.9,2.4,7.5,3.5c1.3,0.5,1.7,1.3,1.7,2.6c-0.2,8.9-0.4,17.8-0.6,26.7c0,1.1-0.4,1.8-1.5,2.2
			c-3.7,1.4-7.3,2.9-11,4.2c-1,0.4-2.1,0.4-3.2,0.4c-8.6,0-17.2,0.1-25.9,0c-1.6,0-3.3-0.4-4.8-0.9c-3.1-1.1-6.2-2.4-9.3-3.6
			c-1.2-0.4-1.7-1.1-1.7-2.4c-0.1-9.1-0.4-18.2-0.4-27.3c0-0.6,0.7-1.5,1.4-1.9c2.4-1.3,4.9-2.4,7.5-3.5c1.3-0.6,1.9-1.3,2-2.8
			c0.6-7.4,4.3-12.7,11.1-15.7c1.4-0.6,2-1.4,1.9-2.8c-0.1-0.8-0.2-1.6,0-2.3c0.3-1,0.7-2.1,1.4-2.7c2.2-1.9,7.2-0.9,8.8,1.5
			c0.4,0.6,1.3,1.2,2,1.2c7.9,0.1,15.9,0,23.8,0.1c1.3,0,1.8-0.5,1.8-1.7c0-1.5-0.1-2.9,0-4.4c0.2-2.4,1.1-3.4,3.5-3.4
			c5.2-0.1,7-0.7,6.8,6.3c-0.2,5.7,0.1,6.8-6.6,6.6C85.5,13.3,81.1,13.5,76.7,13.5C76.7,13.5,76.7,13.5,76.7,13.5z M53.3,70
			c2.3,0,4.5-0.2,6.7,0c6,0.6,11.4-0.9,16.7-3.5c0.8-0.4,1.7-1.1,1.9-1.8c0.3-1.1,0-2.3-0.1-3.5c-1.1,0.2-2.3,0.3-3.2,0.8
			c-4.3,2.1-8.8,2.8-13.6,2.6c-6.5-0.2-13.1,0-19.7-0.1c-2.1,0-4.2-0.6-6.2-1.2c-2.1-0.6-4-1.6-6-2.3c-0.4-0.1-1.3,0-1.4,0.3
			c-0.9,1.7,0.3,4.4,2.1,5.2c5.3,2.5,10.8,4,16.7,3.4C49.2,69.8,51.3,70,53.3,70z M53.5,31.9c4.3,0,8.6,0,12.9,0c1,0,2,0,1.9-1.5
			c-0.1-1.2-0.2-2.3-1.9-2.3c-8.5,0-17,0-25.5,0c-1.9,0-2,1.3-2,2.5c-0.1,1.6,1.2,1.3,2.1,1.3C45.1,32,49.3,31.9,53.5,31.9z
			 M53.6,46.8c-3.2,0-6,2.7-6,5.9c0,3.2,2.7,6,5.9,6.1c3.4,0.1,6.2-2.8,6.2-6.1C59.6,49.5,56.8,46.8,53.6,46.8z M51.8,12.2
			c-0.3,1.4,0.6,1.6,1.9,1.7c1.5,0.1,1.7-0.6,1.8-1.9c0-1.4-0.5-1.9-1.9-1.9C52.1,10.1,51.6,10.7,51.8,12.2z M92.9,9.2
			C93.1,7.1,92.2,7,91.1,7c-1.2,0-1.5,0.6-1.5,1.6c0,1.4,0.9,1.7,1.9,1.5C92.1,9.9,92.6,9.3,92.9,9.2z"/>
		<path class="st0" d="M33.2,7.9c0.1,0,0.1,0.1,0.2,0.1c-0.1-0.1-0.2-0.2-0.3-0.3c1.6,1.3,3.1,2.7,4.4,4.3c0.3,0.3,0.8,0.5,1.2,0.5
			c0.4,0,0.9-0.2,1.2-0.5c0.3-0.3,0.5-0.8,0.5-1.2c0-0.2,0-0.3-0.1-0.5c-0.1-0.3-0.2-0.5-0.4-0.8c-1.4-1.8-3.1-3.3-4.9-4.7
			c-0.3-0.3-1-0.3-1.3-0.2c-0.4,0.1-0.8,0.4-1,0.8c-0.2,0.4-0.3,0.9-0.2,1.3c0.1,0.1,0.1,0.3,0.2,0.4C32.7,7.5,32.9,7.7,33.2,7.9
			L33.2,7.9z"/>
		<path class="st0" d="M26.6,18.1c1.5,0.5,3,1,4.4,1.5c0.4,0.1,1,0,1.3-0.2c0.4-0.2,0.7-0.6,0.8-1c0.1-0.4,0.1-0.9-0.2-1.3
			c-0.3-0.4-0.6-0.6-1-0.8c-1.5-0.5-3-1-4.4-1.5c-0.4-0.1-1,0-1.3,0.2c-0.4,0.2-0.7,0.6-0.8,1c-0.1,0.4-0.1,0.9,0.2,1.3
			C25.8,17.7,26.1,18,26.6,18.1L26.6,18.1z"/>
		<path class="st0" d="M29.7,24.5c-0.4,0-0.9-0.1-1.3,0c-0.6,0.1-1.1,0.1-1.7,0.3c-0.4,0.1-0.8,0.4-1,0.8c-0.1,0.2-0.2,0.4-0.2,0.6
			c-0.1,0.2,0,0.5,0,0.7c0.1,0.4,0.4,0.8,0.8,1c0.4,0.2,0.9,0.3,1.3,0.2c0.3-0.1,0.7-0.2,1.1-0.2c-0.2,0-0.3,0-0.5,0.1
			c0.5-0.1,0.9-0.1,1.4,0c0.2,0,0.5,0,0.7-0.1c0.2-0.1,0.4-0.2,0.6-0.4c0.2-0.2,0.3-0.3,0.4-0.6c0.1-0.2,0.2-0.4,0.1-0.7
			c0-0.4-0.2-0.9-0.5-1.2c-0.1-0.1-0.2-0.2-0.3-0.3C30.3,24.6,30,24.5,29.7,24.5L29.7,24.5z"/>
		<path class="st0" d="M79,23.7c0.4-0.2,0.8-0.4,1.2-0.5c-0.1,0.1-0.3,0.1-0.4,0.2c2-0.8,4-1.4,6.1-1.8c0.4-0.1,0.8-0.5,1-0.8
			c0.2-0.4,0.3-0.9,0.2-1.3c-0.1-0.4-0.4-0.8-0.8-1c-0.4-0.2-0.9-0.3-1.3-0.2c-2.7,0.5-5.3,1.4-7.7,2.5c-0.4,0.2-0.7,0.7-0.8,1
			c-0.1,0.4-0.1,1,0.2,1.3c0.2,0.4,0.6,0.7,1,0.8C78.1,24,78.5,24,79,23.7L79,23.7z"/>
		<path class="st0" d="M79.9,31.2c0.9,0.2,1.9,0.4,2.8,0.5c0.2,0.1,0.5,0.1,0.7,0c0.2,0,0.4-0.1,0.6-0.2c0.4-0.2,0.7-0.6,0.8-1
			c0.1-0.4,0.1-0.9-0.2-1.3c-0.2-0.4-0.6-0.7-1-0.8c-0.9-0.2-1.9-0.4-2.8-0.5c-0.2-0.1-0.5-0.1-0.7,0c-0.2,0-0.4,0.1-0.6,0.2
			c-0.4,0.2-0.7,0.6-0.8,1c-0.1,0.4-0.1,0.9,0.2,1.3C79.1,30.7,79.5,31.1,79.9,31.2L79.9,31.2z"/>
	</g>
</g>
</svg>
