<?xml version="1.0" encoding="UTF-8"?>
<svg id="Layer_2" data-name="Layer 2" xmlns="http://www.w3.org/2000/svg" viewBox="0 0 59.27 89.95">
  <defs>
    <style>
      .cls-1 {
        fill: #f6c65d;
        stroke-width: 0px;
      }
    </style>
  </defs>
  <g id="Layer_1-2" data-name="Layer 1">
    <g>
      <g>
        <g>
          <g>
            <path class="cls-1" d="m11.6,56.38c0,2.88-1.58,3.02-1.58,4.3,0,1.75,2.13,4.38,2.13,7.34,0,.67-.83,1.41-2.08,1.41-3.3,0-2.74-7.65-4.04-7.65-1.5,0,.39,7.62-2.58,7.62-2.19,0-2.38-2.49-2.38-4.35v-2.69c0-1.41.08-2.85.08-4.27,0-5.32.8-6.15,6.1-6.15,2.6,0,4.35,1.33,4.35,4.43Zm-5.24-.61c-.39,0-.55.06-.55.5,0,.28.03,1.14.05,1.39.03.19.06.25.14.25.53,0,1.52-.83,1.52-1.47,0-.53-.78-.67-1.16-.67Z"/>
            <path class="cls-1" d="m18.19,58.49v2.66c0,3.27-.11,8.37-2.16,8.37-3.1,0-3.3-4.77-3.3-8.87,0-1.41.06-2.77.06-3.82,0-2.52.64-4.6,2.3-4.6,3.02,0,3.1,3.3,3.1,6.26Z"/>
            <path class="cls-1" d="m21.82,69.57c-1.55,0-2.74-.53-2.74-2.19,0-2.69,3.24-3.19,3.24-5.51s-2.74-3.02-2.74-5.49c0-2.74,2.36-4.16,6.04-4.16,1.52,0,2.52,1.03,2.52,2.36,0,1.91-2.58,1.27-2.58,2.99,0,2.13,2.38,3.55,2.38,5.93,0,3.77-2.72,6.07-6.12,6.07Z"/>
            <path class="cls-1" d="m38.39,65.03c0,2.77-1.94,4.41-4.82,4.41-4.18,0-4.6-3.77-4.6-7.98,0-1.05.03-2.13.03-3.19,0-4.24,1.75-5.99,5.54-5.99,1.41,0,3.1.44,3.1,2.24,0,2.36-3.91.83-3.91,2.41,0,1.69,3.38.14,3.38,2.52,0,2.8-3.44.72-3.44,2.8,0,.75.75,1.03,1.47,1.03.55,0,1.08-.14,1.58-.14,1.14,0,1.66.91,1.66,1.88Z"/>
            <path class="cls-1" d="m48.5,52.09c1.88,0,4.07.92,4.07,3.19,0,1.66-1.33,2.88-1.33,4.21.53.64,1.14,1,1.72,1.55,1.16-.42,1.22-2.38,2.94-2.38.86,0,1.94.47,1.94,1.39,0,1.61-1,2.85-1,4.38,0,1.36,2.24,1.52,2.24,3.49,0,.86-.47,1.66-1.5,1.66-1.66,0-3.69-1.14-3.69-1.14-1.38,0-3.16,1.16-4.99,1.16-3.1,0-6.21-1.5-6.21-5.87,0-1.83,1.94-3.19,1.94-4.32,0-.89-1.3-1.69-1.3-2.99,0-2.52,2.44-4.32,5.15-4.32Zm.28,13.44c.78,0,1.72-.5,1.77-1.16-.28-.44-1.55-1.58-2.02-1.75-.53.53-.69,1.36-.69,2.13,0,.55.44.78.94.78Zm-.78-9.2c0,.44.19.86.47,1.19.64-.25.8-.67.8-1.3,0-.36-.3-.72-.61-.72-.44,0-.67.31-.67.83Z"/>
          </g>
          <g>
            <path class="cls-1" d="m0,81.11c0-3.74,1.91-8.56,7.12-8.56,1.75,0,5.07,1.33,5.07,3.41,0,1.22-1.16,1.83-2.05,1.83-1.39,0-1.83-.75-3.24-.75-1.63,0-2.66,1.47-2.66,3.38,0,1.72.39,3.77,2.19,3.77.8,0,1.86-.08,1.86-1,0-1.19-2.08.44-2.08-1.94,0-1.63,1-2.13,2.08-2.13,2.36,0,4.16.83,4.16,3.21,0,4.07-1.8,7.23-5.76,7.23-5.4,0-6.68-4.68-6.68-8.45Z"/>
            <path class="cls-1" d="m22.5,89.57c-2.83,0-3.02-6.26-4.1-6.26-.33,0-.42.69-.42,1.39s.08,1.55.08,2.36c0,1.8-.83,2.91-2.72,2.91-1.66,0-1.77-1.3-1.77-2.96v-6.87c0-1.8.06-3.08.06-4.63,0-1.91.64-3.08,2.58-3.08,3.16,0,7.43.03,7.43,3.8,0,2.72-1.77,3.6-1.77,4.24,0,1.52,2.69,4.41,2.69,7.12,0,.97-.72,2-2.05,2Zm-4.54-11.42c.72,0,1.39-.83,1.39-1.5,0-.58-.61-.89-1.16-.89-.44,0-.5.55-.5,1.11v.5c0,.47.03.78.28.78Z"/>
            <path class="cls-1" d="m30.76,78.79v2.66c0,3.27-.11,8.37-2.16,8.37-3.1,0-3.3-4.77-3.3-8.87,0-1.41.06-2.77.06-3.82,0-2.52.64-4.6,2.3-4.6,3.02,0,3.1,3.3,3.1,6.26Z"/>
            <path class="cls-1" d="m40.12,79.84c.44,0,.47-.58.47-1,0-.67-.06-1.55-.06-2.47,0-1.88.31-3.91,2.19-3.91.94,0,2.69,1.03,2.69,2.83,0,3.3.03,4.66.03,7.62s-.19,6.82-1.97,6.82c-4.49,0-3.88-6.98-5.35-6.98-.44,0-.53.86-.53,2.08v.64c0,2-.11,4.27-2.52,4.27-2.94,0-3.05-3.3-3.05-6.32v-5.76c0-2.41.67-4.99,2.94-4.99,1.91,0,3.74,7.18,5.15,7.18Z"/>
            <path class="cls-1" d="m50.57,89.93c-3.35,0-3.88-2.47-3.88-5.68,0-1.47.11-3.05.11-4.66,0-3.74.03-7.04,3.35-7.04,5.29,0,9.12,3.16,9.12,9.03,0,4.99-3.57,8.34-8.7,8.34Zm3.66-9.45c0-.97-1-2.25-1.88-2.25-.83,0-.89.53-.89,1.52v2.77c0,.66.03,1.27.55,1.27.86,0,2.22-1.5,2.22-3.33Z"/>
          </g>
        </g>
        <path class="cls-1" d="m42.71,7.2c-2.95,0-5.89-.01-8.84.01-.33,0-.66.2-.99.31.28.22.52.52.83.66,3.81,1.73,5.97,4.64,6.26,8.85.05.77.38,1.16,1.06,1.46,1.4.61,2.74,1.35,4.15,1.93.73.3.95.72.94,1.47-.13,4.96-.23,9.92-.31,14.89-.01.64-.23.99-.82,1.22-2.04.77-4.06,1.6-6.1,2.35-.54.2-1.17.23-1.76.23-4.8.02-9.6.04-14.4-.01-.9,0-1.83-.23-2.69-.52-1.75-.61-3.45-1.36-5.19-2-.66-.24-.94-.61-.95-1.31-.08-5.07-.2-10.14-.24-15.22,0-.35.41-.86.77-1.05,1.35-.7,2.75-1.33,4.15-1.93.72-.31,1.07-.7,1.14-1.55.33-4.11,2.4-7.05,6.17-8.73.76-.34,1.12-.75,1.03-1.58-.05-.43-.1-.9.03-1.3.17-.55.39-1.18.8-1.53,1.21-1.06,3.99-.51,4.93.81.23.33.72.66,1.09.67,4.42.04,8.84.02,13.26.03.7,0,.99-.27.98-.96-.02-.82-.03-1.64.02-2.45.09-1.35.6-1.88,1.95-1.9,2.91-.05,3.92-.39,3.81,3.5-.09,3.15.05,3.8-3.68,3.67-2.45-.09-4.91-.02-7.36-.02h0Zm-12.99,31.49c1.25,0,2.52-.11,3.76.02,3.32.34,6.37-.5,9.29-1.94.43-.21.94-.61,1.05-1.02.16-.6,0-1.28-.03-1.93-.6.14-1.26.17-1.8.43-2.4,1.19-4.91,1.57-7.59,1.47-3.65-.13-7.3.02-10.96-.06-1.17-.03-2.35-.33-3.48-.65-1.15-.33-2.23-.86-3.37-1.26-.23-.08-.7,0-.78.15-.51.96.15,2.45,1.16,2.92,2.95,1.37,5.99,2.25,9.3,1.89,1.13-.12,2.29-.02,3.43-.02Zm.08-21.21c2.39,0,4.79,0,7.18,0,.57,0,1.12,0,1.05-.84-.06-.69-.13-1.29-1.07-1.29-4.73.02-9.47.02-14.2,0-1.05,0-1.09.71-1.13,1.42-.05.89.66.7,1.15.71,2.34.02,4.68,0,7.02,0Zm.05,8.29c-1.81,0-3.35,1.51-3.37,3.27-.02,1.76,1.53,3.36,3.29,3.39,1.87.03,3.46-1.53,3.44-3.39-.02-1.79-1.54-3.28-3.36-3.27Zm-1.01-19.31c-.17.78.34.87,1.03.92.85.06.97-.36.98-1.06,0-.77-.27-1.04-1.04-1.04-.8,0-1.07.35-.97,1.18Zm22.9-1.66c.12-1.16-.4-1.2-1-1.21-.65,0-.84.31-.85.91-.02.79.47.95,1.06.81.36-.08.66-.42.79-.51Z"/>
      </g>
      <path class="cls-1" d="m18.49,4.07s.06.05.1.07l-.19-.15c.9.7,1.72,1.5,2.45,2.39.15.18.46.28.68.28.24,0,.52-.1.68-.28s.29-.42.28-.68l-.03-.26c-.05-.16-.13-.3-.25-.42-.8-.99-1.73-1.85-2.74-2.62-.18-.14-.53-.16-.74-.1-.22.06-.47.23-.58.44-.12.22-.18.49-.1.74l.1.23c.09.14.2.26.35.35h0Z"/>
      <path class="cls-1" d="m14.81,9.77l2.48.85c.23.08.54.02.74-.1s.39-.35.44-.58c.06-.25.04-.52-.1-.74s-.33-.36-.58-.44l-2.48-.85c-.23-.08-.54-.02-.74.1s-.39.35-.44.58c-.06.25-.04.52.1.74s.33.36.58.44h0Z"/>
      <path class="cls-1" d="m16.54,13.34c-.24-.03-.47-.03-.71,0-.31.03-.62.08-.92.18-.24.08-.45.22-.58.44-.07.11-.11.23-.11.36-.03.13-.02.26.02.38.08.23.22.46.44.58s.5.18.74.1c.19-.06.39-.11.59-.14l-.26.03c.26-.03.52-.04.79,0,.13,0,.26-.02.37-.08.12-.04.22-.11.31-.2.09-.09.16-.19.2-.31.06-.11.09-.24.08-.37-.01-.25-.09-.51-.28-.68l-.19-.15c-.15-.09-.31-.13-.49-.13h0Z"/>
      <path class="cls-1" d="m44,12.91c.22-.1.44-.2.66-.29l-.23.1c1.1-.46,2.24-.8,3.42-1.01.23-.04.46-.25.58-.44.12-.21.17-.51.1-.74s-.22-.46-.44-.58c-.24-.13-.47-.15-.74-.1-1.49.27-2.93.75-4.31,1.4-.21.1-.38.36-.44.58-.06.23-.03.54.1.74s.33.39.58.44c.26.06.5.02.74-.1h0Z"/>
      <path class="cls-1" d="m44.52,17.04l1.56.3c.13.04.26.05.38.02.13,0,.25-.04.36-.11.2-.12.39-.35.44-.58.06-.25.04-.52-.1-.74-.13-.2-.33-.4-.58-.44l-1.56-.3c-.13-.04-.26-.05-.38-.02-.13,0-.25.04-.36.11-.2.12-.39.35-.44.58-.06.25-.04.52.1.74.13.2.33.4.58.44h0Z"/>
    </g>
  </g>
</svg>