<?xml version="1.0" encoding="utf-8"?>
<!-- Generator: Adobe Illustrator 28.0.0, SVG Export Plug-In . SVG Version: 6.00 Build 0)  -->
<svg version="1.1" id="Layer_1" xmlns="http://www.w3.org/2000/svg" xmlns:xlink="http://www.w3.org/1999/xlink" x="0px" y="0px"
	 viewBox="0 0 73.2 73.7" style="enable-background:new 0 0 73.2 73.7;" xml:space="preserve">
<style type="text/css">
	.st0{fill:#363636;}
</style>
<g>
	<path class="st0" d="M53.4,12.9c-5.3,0-10.6,0-15.9,0c-0.6,0-1.2,0.4-1.8,0.6c0.5,0.4,0.9,0.9,1.5,1.2C44.1,17.8,48,23,48.5,30.6
		c0.1,1.4,0.7,2.1,1.9,2.6c2.5,1.1,4.9,2.4,7.5,3.5c1.3,0.5,1.7,1.3,1.7,2.6C59.3,48.2,59.1,57.1,59,66c0,1.1-0.4,1.8-1.5,2.2
		c-3.7,1.4-7.3,2.9-11,4.2c-1,0.4-2.1,0.4-3.2,0.4c-8.6,0-17.2,0.1-25.9,0c-1.6,0-3.3-0.4-4.8-0.9c-3.1-1.1-6.2-2.4-9.3-3.6
		c-1.2-0.4-1.7-1.1-1.7-2.4c-0.1-9.1-0.4-18.2-0.4-27.3c0-0.6,0.7-1.5,1.4-1.9c2.4-1.3,4.9-2.4,7.5-3.5c1.3-0.6,1.9-1.3,2-2.8
		c0.6-7.4,4.3-12.7,11.1-15.7c1.4-0.6,2-1.4,1.9-2.8c-0.1-0.8-0.2-1.6,0-2.3c0.3-1,0.7-2.1,1.4-2.7C28.7,5,33.7,6,35.3,8.3
		c0.4,0.6,1.3,1.2,2,1.2c7.9,0.1,15.9,0,23.8,0.1c1.3,0,1.8-0.5,1.8-1.7c0-1.5-0.1-2.9,0-4.4C63.1,1,64,0.1,66.4,0.1
		c5.2-0.1,7-0.7,6.8,6.3c-0.2,5.7,0.1,6.8-6.6,6.6C62.2,12.8,57.8,12.9,53.4,12.9C53.4,12.9,53.4,12.9,53.4,12.9z M30.1,69.5
		c2.3,0,4.5-0.2,6.7,0c6,0.6,11.4-0.9,16.7-3.5c0.8-0.4,1.7-1.1,1.9-1.8c0.3-1.1,0-2.3-0.1-3.5c-1.1,0.2-2.3,0.3-3.2,0.8
		c-4.3,2.1-8.8,2.8-13.6,2.6c-6.5-0.2-13.1,0-19.7-0.1c-2.1,0-4.2-0.6-6.2-1.2c-2.1-0.6-4-1.6-6-2.3c-0.4-0.1-1.3,0-1.4,0.3
		c-0.9,1.7,0.3,4.4,2.1,5.2c5.3,2.5,10.8,4,16.7,3.4C26,69.3,28,69.5,30.1,69.5z M30.2,31.4c4.3,0,8.6,0,12.9,0c1,0,2,0,1.9-1.5
		c-0.1-1.2-0.2-2.3-1.9-2.3c-8.5,0-17,0-25.5,0c-1.9,0-2,1.3-2,2.5c-0.1,1.6,1.2,1.3,2.1,1.3C21.8,31.4,26,31.4,30.2,31.4z
		 M30.3,46.3c-3.2,0-6,2.7-6,5.9c0,3.2,2.7,6,5.9,6.1c3.4,0.1,6.2-2.8,6.2-6.1C36.3,48.9,33.6,46.2,30.3,46.3z M28.5,11.6
		c-0.3,1.4,0.6,1.6,1.9,1.7c1.5,0.1,1.7-0.6,1.8-1.9c0-1.4-0.5-1.9-1.9-1.9C28.8,9.5,28.3,10.1,28.5,11.6z M69.6,8.6
		c0.2-2.1-0.7-2.2-1.8-2.2c-1.2,0-1.5,0.6-1.5,1.6c0,1.4,0.9,1.7,1.9,1.5C68.8,9.4,69.4,8.8,69.6,8.6z"/>
	<path class="st0" d="M9.9,7.3c0.1,0,0.1,0.1,0.2,0.1C10,7.3,9.9,7.3,9.8,7.2c1.6,1.3,3.1,2.7,4.4,4.3c0.3,0.3,0.8,0.5,1.2,0.5
		c0.4,0,0.9-0.2,1.2-0.5c0.3-0.3,0.5-0.8,0.5-1.2c0-0.2,0-0.3-0.1-0.5c-0.1-0.3-0.2-0.5-0.4-0.8c-1.4-1.8-3.1-3.3-4.9-4.7
		c-0.3-0.3-1-0.3-1.3-0.2c-0.4,0.1-0.8,0.4-1,0.8C9.1,5.3,9,5.8,9.1,6.3c0.1,0.1,0.1,0.3,0.2,0.4C9.5,6.9,9.7,7.1,9.9,7.3L9.9,7.3z"
		/>
	<path class="st0" d="M3.3,17.5c1.5,0.5,3,1,4.4,1.5c0.4,0.1,1,0,1.3-0.2c0.4-0.2,0.7-0.6,0.8-1c0.1-0.4,0.1-0.9-0.2-1.3
		c-0.3-0.4-0.6-0.6-1-0.8c-1.5-0.5-3-1-4.4-1.5c-0.4-0.1-1,0-1.3,0.2c-0.4,0.2-0.7,0.6-0.8,1C2,15.9,2,16.4,2.3,16.7
		C2.5,17.1,2.9,17.4,3.3,17.5L3.3,17.5z"/>
	<path class="st0" d="M6.4,23.9c-0.4,0-0.9-0.1-1.3,0C4.6,24,4,24.1,3.5,24.3c-0.4,0.1-0.8,0.4-1,0.8c-0.1,0.2-0.2,0.4-0.2,0.6
		c-0.1,0.2,0,0.5,0,0.7c0.1,0.4,0.4,0.8,0.8,1c0.4,0.2,0.9,0.3,1.3,0.2c0.3-0.1,0.7-0.2,1.1-0.2c-0.2,0-0.3,0-0.5,0.1
		c0.5-0.1,0.9-0.1,1.4,0c0.2,0,0.5,0,0.7-0.1c0.2-0.1,0.4-0.2,0.6-0.4c0.2-0.2,0.3-0.3,0.4-0.6c0.1-0.2,0.2-0.4,0.1-0.7
		c0-0.4-0.2-0.9-0.5-1.2c-0.1-0.1-0.2-0.2-0.3-0.3C7,24,6.7,23.9,6.4,23.9L6.4,23.9z"/>
	<path class="st0" d="M55.7,23.2c0.4-0.2,0.8-0.4,1.2-0.5c-0.1,0.1-0.3,0.1-0.4,0.2c2-0.8,4-1.4,6.1-1.8c0.4-0.1,0.8-0.5,1-0.8
		c0.2-0.4,0.3-0.9,0.2-1.3c-0.1-0.4-0.4-0.8-0.8-1c-0.4-0.2-0.9-0.3-1.3-0.2C59,18.2,56.4,19,54,20.2c-0.4,0.2-0.7,0.7-0.8,1
		c-0.1,0.4-0.1,1,0.2,1.3c0.2,0.4,0.6,0.7,1,0.8C54.9,23.5,55.3,23.4,55.7,23.2L55.7,23.2z"/>
	<path class="st0" d="M56.7,30.6c0.9,0.2,1.9,0.4,2.8,0.5c0.2,0.1,0.5,0.1,0.7,0c0.2,0,0.4-0.1,0.6-0.2c0.4-0.2,0.7-0.6,0.8-1
		c0.1-0.4,0.1-0.9-0.2-1.3c-0.2-0.4-0.6-0.7-1-0.8c-0.9-0.2-1.9-0.4-2.8-0.5c-0.2-0.1-0.5-0.1-0.7,0c-0.2,0-0.4,0.1-0.6,0.2
		c-0.4,0.2-0.7,0.6-0.8,1c-0.1,0.4-0.1,0.9,0.2,1.3C55.9,30.2,56.2,30.5,56.7,30.6L56.7,30.6z"/>
</g>
</svg>
