<?xml version="1.0" encoding="UTF-8"?>
<svg id="Layer_2" data-name="Layer 2" xmlns="http://www.w3.org/2000/svg" xmlns:xlink="http://www.w3.org/1999/xlink" viewBox="0 0 102.83 102.83">
  <defs>
    <style>
      .cls-1 {
        fill: none;
      }

      .cls-1, .cls-2 {
        stroke-width: 0px;
      }

      .cls-3 {
        clip-path: url(#clippath);
      }

      .cls-2 {
        fill: #8a5956;
      }
    </style>
    <clipPath id="clippath">
      <rect class="cls-1" width="102.83" height="102.83"/>
    </clipPath>
  </defs>
  <g id="Layer_1-2" data-name="Layer 1">
    <g class="cls-3">
      <path class="cls-2" d="m140.86,20.47h-12.56c-1.31,0-2.71,0-4.19.01-1.48.01-3.04.03-4.67.08-14.31,2.53-21.46,16.75-30.57,27.07-4.67,5.42-9.56,10.76-16.45,12.87-1.27.37-2.58.58-3.95.6-1.84,0-2.88-1.22-3.4-2.83s-.52-3.19-.29-4.85c1.73-12.8-.23-26.19-6.75-37.21-1.18-1.4-2.59-2.61-4.23-3.64-1.39-.98-2.9-1.94-4.44-2.79-6.33-4.16-14.46-4.31-21.01.21-6.55,4.59-13.02,7.9-19.92,11.03-1.46.71-2.94,1.37-4.47,1.96-1.53.59-3.11,1.1-4.74,1.54-8.96,2.41-17.76,1.05-26.41-.85-1.77-.38-3.52-.76-5.27-1.14-1.75-.38-3.5-.75-5.27-1.09v-10.24c1.58.24,3.15.56,4.72.93,8.75,2.31,17.63,4.64,26.74,4.34,1.79-.06,3.52-.29,5.18-.66,11.15-2.35,21.24-7.17,31.47-12.29,7.45-3.76,15.88-1.73,22.73,2.11,2.16,1.07,4.19,2.27,6.13,3.62,7.64,6.23,8.85,16.62,13.59,25.05,2.78,4.97,8.81,3.16,12.34,0,10.61-9.41,18.97-23.71,34.25-24.2,2.61,0,5.04,0,7.25,0h14.17v10.37Z"/>
      <path class="cls-2" d="m140.86,39.28h-17.08c-2.59-.12-5.07.33-7.47,1.33-2.45.99-4.48,2.49-6.59,4.22-1.42,1.2-2.85,2.53-4.29,3.93-10.99,12.03-24.62,29.72-42.68,24.07-7.68-2.46-7.69-9.9-6.74-17.38.24-1.87.54-3.74.79-5.53,1.43-8.33-.07-17.51-5.74-24.04-1.1-1.23-2.32-2.28-3.62-3.14-1.08-.72-2.23-1.31-3.42-1.77-7.77-3.23-16.13.23-22.56,4.84-1.54.96-3.07,1.9-4.6,2.82-6.12,3.67-12.28,6.91-19,9.41-1.96.69-3.9,1.23-5.87,1.66-3.94.85-8,1.23-12.19.99-3.01-.34-6-.62-8.99-.85-2.98-.23-5.96-.4-8.93-.51.08-3.31.08-6.62.23-9.94,1.79.24,3.57.53,5.35.83,1.78.3,3.56.61,5.35.91,8.13,2.13,16.1,1.84,23.76-.12,1.92-.49,3.81-1.08,5.69-1.77,2.85-1.05,5.64-2.3,8.36-3.69,1.36-.7,2.7-1.43,4.04-2.19,5.48-3.15,10.75-5.93,16.17-9.69,5.65-3.99,12.42-2.56,17.56.98,1.23.74,2.42,1.55,3.53,2.37,1.03.76,1.99,1.62,2.86,2.56,7.52,9.07,7.22,21.86,5.56,32.82-.26,2.03-.51,4.06-.68,6.05-.23,3.16.23,6.7,3.16,8.73,1.66,1.13,3.54,1.51,5.49,1.28,4.89-.56,9.28-2.43,13.23-5.08,1.32-.88,2.59-1.86,3.81-2.89,6.6-5.42,10.89-12.72,16.53-19.27,4.29-5.04,8.96-10.09,15.44-11.8,1.43-.21,2.8-.34,4.12-.41s2.59-.1,3.8-.1h15.6v10.37Z"/>
      <path class="cls-2" d="m140.86,58.1h-8.44c-1.79,0-3.82,0-6.08.06-2.29.04-4.54.41-6.76,1.08-1.87.57-3.68,1.32-5.42,2.4-3.05,2.06-6.16,4.17-9.32,6.23-1.58,1.03-3.18,2.06-4.81,3.09-13.56,8.79-28.84,17.9-45.7,15.42-2.31-.33-4.17-1.07-5.66-2.14-1.26-.97-2.25-2.14-3.01-3.44-.77-1.3-1.32-2.74-1.69-4.25-1-4.47-.7-9.14.1-13.6.25-1.45.53-2.91.81-4.37s.56-2.91.8-4.35c1.58-10.09-5.87-21.45-16.63-20.62-1.62.13-3.19.38-4.71.74s-3,.82-4.45,1.36c-10.03,3.77-17.86,10.7-26.44,17.39-2.71,2.18-5.72,3.76-9.02,4.51-1.32.3-2.69.47-4.11.47-1.62,0-3.15,0-4.59,0h-13.83v-10.37h4.17c6.37-.03,12.7.79,19.17-.18,2.09-.31,4.09-.83,6.01-1.49,6.41-2.57,12.43-5.96,18.35-9.43,1.92-1.13,3.87-2.29,5.83-3.39,9.8-5.5,20.04-9.45,30.22-2.89,1.2.92,2.29,2.03,3.22,3.35,1.08,1.26,1.93,2.64,2.57,4.1s1.08,3,1.37,4.58c.33,1.85.44,3.69.4,5.53-.1,5.5-1.53,10.93-2.49,16.57-.45,2.71-.53,5.34.39,7.88.41,1.22,1.04,2.39,1.94,3.48,4.59,5.49,12.87,4.89,19.57,3.01,13.02-3.76,23.41-12.19,32.9-21.23,1-.91,1.99-1.81,3-2.67,3.03-2.6,6.2-4.9,10.06-6.22,2.2-.62,4.44-.96,6.76-1,2.41,0,4.58,0,6.49,0h9.03v10.37Z"/>
      <path class="cls-2" d="m140.86,74.66h-14.17c-1.62,0-3.22.11-4.8.3-1.58.2-3.15.48-4.72.86-.82.18-1.65.41-2.4.71-2.31.85-4.61,1.75-6.9,2.65-3.92,1.45-7.82,2.98-11.71,4.49-1.95.76-3.9,1.51-5.87,2.25-12.03,4.3-25.81,11-38.49,6.41-1.81-.66-3.6-1.54-5.37-2.71-1.41-.96-2.64-2.03-3.72-3.2-7.72-8.99-7.12-21.56-8.47-32.85-.53-4.37-3.61-8.73-8.28-9.03-14.6-.98-23.71,11.67-31.91,22.43-2.78,3.61-6.4,6.55-10.88,7.11-1.85.35-3.75.51-5.66.52-2.42.07-4.61.07-6.53.07h-9.08v-10.37h13.83c1.44,0,2.97,0,4.6-.04,2.45-.11,4.72-.68,6.85-1.69,1.75-.87,3.33-1.85,4.83-3.2,10.39-9.33,20.25-21.6,35.08-21.9,1.67,0,3.2.31,4.6.86,2.79,1.1,5.02,3.19,6.65,5.78.81,1.3,1.47,2.72,1.98,4.21.93,2.71,1.38,5.65,1.08,8.51-.75,8.35-2.41,17.16,1.48,24.91.75,1.41,1.69,2.69,2.86,3.77,1.17,1.08,2.57,1.98,4.24,2.63,1.81.57,3.61.98,5.4,1.24,16.14,2.34,31.68-7.16,45.64-14.42,1.89-1.05,3.77-2.11,5.64-3.19,1.87-1.08,3.72-2.17,5.56-3.26,1.59-.99,3.22-1.76,4.92-2.37s3.45-1.06,5.27-1.39c1.75-.3,3.55-.46,5.39-.43h13.09v10.37Z"/>
      <path class="cls-2" d="m140.86,92.72h-14.17c-2.21,0-4.64,0-7.25,0-1.9.03-3.8.11-5.69.22-1.89.11-3.79.24-5.68.4-2.73.49-5.46.92-8.18,1.29-2.73.38-5.47.72-8.32,1.11-5.85.78-11.66,1.97-17.51,2.91-1.95.31-3.9.6-5.87.83-3.92.46-7.91.69-11.9.52-2.41-.11-4.85-.4-7.33-1.01-1.29-.35-2.52-.81-3.7-1.37-1.76-.91-3.35-1.98-4.81-3.19-1.46-1.21-2.8-2.54-4.06-4.01-1.62-1.85-2.9-3.96-4.33-6.14-4.67-7.23-6.4-15.96-13.92-20.62-1.28-.75-2.86-.75-4.29-.15-7.53,3.31-10.16,11.44-14.98,17.91-2.33,3.24-4.82,6.1-8.17,7.95-1.11.62-2.27,1.15-3.49,1.57-2.22.77-4.51,1.34-6.91,1.63-1.6.14-3.13.16-4.57.16h-13.83v-10.37h10.76c2.26,0,4.83-.01,7.66-.21,1.66-.13,3.23-.44,4.73-.89,4.18-1.11,7.35-4.12,9.98-7.66,5.27-7.23,8.88-14.53,16.56-19.65,5.42-3.69,14.53-5.87,17.09,1.66,3.54,10.61,4.59,22.2,11.14,31.4,1.04,1.34,2.2,2.57,3.49,3.69,1.29,1.12,2.72,2.12,4.3,3,1.3.64,2.68,1.16,4.17,1.51,12.42,2.86,24.31-.9,35.86-4.36,2.07-.6,4.14-1.2,6.2-1.79,2.07-.58,4.13-1.14,6.19-1.63,2.58-.76,5.14-1.61,7.68-2.53,2.03-.75,4.14-1.2,6.24-1.54,1.8-.34,3.6-.6,5.42-.79,2.69-.16,5.13-.2,7.34-.2h14.17v10.37Z"/>
      <path class="cls-2" d="m140.37,89.5s-5.24,1.03-13.91,2.73c-2.17.43-4.55.89-7.12,1.4-1.86.4-3.7.84-5.54,1.31s-3.67.97-5.5,1.49c-2.58,1.01-5.18,1.96-7.78,2.84-2.6.9-5.23,1.76-7.95,2.69-5.6,1.89-11.06,4.18-16.62,6.23-1.85.68-3.72,1.34-5.6,1.94-3.76,1.21-7.63,2.2-11.58,2.81-2.39.36-4.83.54-7.39.42-1.33-.09-2.63-.31-3.89-.63-1.9-.55-3.67-1.3-5.34-2.2-1.67-.9-3.24-1.96-4.76-3.15-1.95-1.5-3.61-3.32-5.43-5.19-5.97-6.19-9.35-14.42-17.64-17.55-1.4-.49-2.95-.19-4.24.68-6.75,4.7-7.77,13.18-11.25,20.46-1.67,3.63-3.55,6.91-6.48,9.37-.97.82-2,1.57-3.12,2.22-2.02,1.19-4.16,2.19-6.46,2.93-1.54.45-3.04.76-4.45,1.04-8.47,1.66-13.57,2.66-13.57,2.66l-2-10.18s3.91-.77,10.55-2.07c2.22-.44,4.73-.94,7.48-1.68,1.6-.45,3.08-1.06,4.47-1.79,3.89-1.9,6.41-5.46,8.32-9.44,3.78-8.11,5.92-15.97,12.46-22.47,4.61-4.66,13.12-8.56,17.08-1.67,5.52,9.73,8.78,20.9,16.98,28.66,1.28,1.12,2.65,2.1,4.13,2.95,1.48.85,3.08,1.56,4.8,2.11,1.39.38,2.85.62,4.39.67,12.74.41,23.68-5.57,34.35-11.19,1.92-.99,3.83-1.97,5.74-2.95,1.91-.97,3.83-1.91,5.76-2.79,2.39-1.25,4.74-2.57,7.05-3.96,1.85-1.13,3.83-1.98,5.82-2.72,1.7-.68,3.41-1.28,5.16-1.82,2.61-.67,5-1.18,7.17-1.61l13.91-2.73,2,10.18Z"/>
      <path class="cls-2" d="m140.86,110.92s-5.24,1.03-13.91,2.73c-2.17.43-4.55.89-7.12,1.4-1.86.4-3.7.84-5.54,1.31s-3.67.97-5.5,1.49c-2.58,1.01-5.18,1.96-7.78,2.84-2.6.9-5.23,1.76-7.95,2.69-5.6,1.89-11.06,4.18-16.62,6.23-1.85.68-3.72,1.34-5.6,1.94-3.76,1.21-7.63,2.2-11.58,2.81-2.39.36-4.83.54-7.39.42-1.33-.09-2.63-.31-3.89-.63-1.9-.55-3.67-1.3-5.34-2.2-1.67-.9-3.24-1.96-4.76-3.15-1.95-1.5-3.61-3.32-5.43-5.19-5.97-6.19-9.35-14.42-17.64-17.55-1.4-.49-2.95-.19-4.24.68-6.75,4.7-7.77,13.18-11.25,20.46-1.67,3.63-3.55,6.91-6.48,9.37-.97.82-2,1.57-3.12,2.22-2.02,1.19-4.16,2.19-6.46,2.93-1.54.45-3.04.76-4.45,1.04-8.47,1.66-13.57,2.66-13.57,2.66l-2-10.18,10.55-2.07c2.22-.44,4.73-.94,7.48-1.68,1.6-.45,3.08-1.06,4.47-1.79,3.89-1.9,6.41-5.46,8.32-9.44C-2.17,112.14-.03,104.28,6.52,97.78c4.61-4.66,13.12-8.56,17.08-1.67,5.52,9.73,8.78,20.9,16.98,28.66,1.28,1.12,2.65,2.1,4.13,2.95,1.48.85,3.08,1.56,4.8,2.11,1.39.38,2.85.62,4.39.67,12.74.41,23.68-5.57,34.35-11.19,1.92-.99,3.83-1.97,5.74-2.95,1.91-.97,3.83-1.91,5.76-2.79,2.39-1.25,4.74-2.57,7.05-3.96,1.85-1.13,3.83-1.98,5.82-2.72,1.7-.68,3.41-1.28,5.16-1.82,2.61-.67,5-1.18,7.17-1.61l13.91-2.73,2,10.18Z"/>
      <path class="cls-2" d="m140.86-22.5s-4.59.99-12.27,2.66c-1.28.28-2.65.57-4.09.9s-2.96.68-4.55,1.06c-13.45,5.5-17.42,20.92-24.14,32.93-3.41,6.29-7.06,12.54-13.35,16.06-1.16.63-2.4,1.11-3.73,1.43-1.8.39-3.07-.59-3.92-2.05s-1.18-3.01-1.31-4.67c-1.02-12.87-5.77-25.55-14.49-34.93-1.45-1.12-3.08-2-4.91-2.66-1.57-.66-3.24-1.28-4.93-1.79-7.07-2.72-15.04-1.14-20.48,4.66C23.26-3.02,17.64,1.58,11.55,6.1c-1.28,1-2.58,1.96-3.95,2.86-1.37.9-2.8,1.74-4.3,2.51-8.24,4.25-17.14,4.79-25.99,4.76-1.81,0-3.6,0-5.39,0-1.79,0-3.58,0-5.38.05l-2.17-10c1.6-.1,3.2-.12,4.81-.1,9.04.4,18.22.8,27.05-1.42,1.74-.44,3.38-1.03,4.93-1.74C11.55-1.64,20.38-8.48,29.3-15.66c6.48-5.26,15.15-5.06,22.66-2.76,2.34.59,4.58,1.33,6.76,2.24,8.79,4.47,12.17,14.37,18.59,21.6,3.77,4.26,9.28,1.22,12.06-2.62,8.38-11.44,13.51-27.19,28.35-30.91,2.55-.56,4.93-1.07,7.09-1.54l13.85-3,2.2,10.14Z"/>
    </g>
  </g>
</svg>