<?xml version="1.0" encoding="utf-8"?>
<!-- Generator: Adobe Illustrator 28.0.0, SVG Export Plug-In . SVG Version: 6.00 Build 0)  -->
<svg version="1.1" id="Layer_2_00000034081392104778252900000012606014976057932953_"
	 xmlns="http://www.w3.org/2000/svg" xmlns:xlink="http://www.w3.org/1999/xlink" x="0px" y="0px" viewBox="0 0 102.8 102.8"
	 style="enable-background:new 0 0 102.8 102.8;" xml:space="preserve">
<style type="text/css">
	.st0{clip-path:url(#SVGID_00000156555682753644367310000016888501540130830493_);}
	.st1{fill:#F6C65D;}
</style>
<g id="Layer_1-2">
	<g>
		<defs>
			<rect id="SVGID_1_" width="102.8" height="102.8"/>
		</defs>
		<clipPath id="SVGID_00000089569708221216610030000004362436438039923385_">
			<use xlink:href="#SVGID_1_"  style="overflow:visible;"/>
		</clipPath>
		<g style="clip-path:url(#SVGID_00000089569708221216610030000004362436438039923385_);">
			<path class="st1" d="M140.9,20.5h-12.6c-1.3,0-2.7,0-4.2,0s-3,0-4.7,0.1C105.1,23.1,98,37.3,88.9,47.6
				c-4.7,5.4-9.6,10.8-16.5,12.9c-1.3,0.4-2.6,0.6-3.9,0.6c-1.8,0-2.9-1.2-3.4-2.8s-0.5-3.2-0.3-4.8c1.7-12.8-0.2-26.2-6.8-37.2
				c-1.2-1.4-2.6-2.6-4.2-3.6c-1.4-1-2.9-1.9-4.4-2.8C43,5.6,34.9,5.5,28.4,10c-6.6,4.6-13,7.9-19.9,11C7,21.7,5.5,22.4,4,23
				s-3.1,1.1-4.7,1.5c-9,2.4-17.8,1-26.4-0.9c-1.8-0.4-3.5-0.8-5.3-1.1s-3.5-0.8-5.3-1.1V11.2c1.6,0.2,3.2,0.6,4.7,0.9
				c8.8,2.3,17.6,4.6,26.7,4.3c1.8-0.1,3.5-0.3,5.2-0.7c11.1-2.4,21.2-7.2,31.5-12.3c7.5-3.8,15.9-1.7,22.7,2.1
				c2.2,1.1,4.2,2.3,6.1,3.6c7.6,6.2,8.9,16.6,13.6,25c2.8,5,8.8,3.2,12.3,0c10.6-9.4,19-23.7,34.2-24.2c2.6,0,5,0,7.2,0h14.2
				L140.9,20.5L140.9,20.5z"/>
			<path class="st1" d="M140.9,39.3h-17.1c-2.6-0.1-5.1,0.3-7.5,1.3c-2.4,1-4.5,2.5-6.6,4.2c-1.4,1.2-2.8,2.5-4.3,3.9
				c-11,12-24.6,29.7-42.7,24.1c-7.7-2.5-7.7-9.9-6.7-17.4c0.2-1.9,0.5-3.7,0.8-5.5c1.4-8.3-0.1-17.5-5.7-24
				c-1.1-1.2-2.3-2.3-3.6-3.1C46.4,22,45.2,21.4,44,21c-7.8-3.2-16.1,0.2-22.6,4.8c-1.5,1-3.1,1.9-4.6,2.8c-6.1,3.7-12.3,6.9-19,9.4
				c-2,0.7-3.9,1.2-5.9,1.7c-3.9,0.8-8,1.2-12.2,1c-3-0.3-6-0.6-9-0.8s-6-0.4-8.9-0.5c0.1-3.3,0.1-6.6,0.2-9.9
				c1.8,0.2,3.6,0.5,5.3,0.8s3.6,0.6,5.4,0.9c8.1,2.1,16.1,1.8,23.8-0.1c1.9-0.5,3.8-1.1,5.7-1.8c2.8-1,5.6-2.3,8.4-3.7
				c1.4-0.7,2.7-1.4,4-2.2c5.5-3.1,10.8-5.9,16.2-9.7c5.7-4,12.4-2.6,17.6,1c1.2,0.7,2.4,1.5,3.5,2.4c1,0.8,2,1.6,2.9,2.6
				c7.5,9.1,7.2,21.9,5.6,32.8c-0.3,2-0.5,4.1-0.7,6c-0.2,3.2,0.2,6.7,3.2,8.7c1.7,1.1,3.5,1.5,5.5,1.3c4.9-0.6,9.3-2.4,13.2-5.1
				c1.3-0.9,2.6-1.9,3.8-2.9c6.6-5.4,10.9-12.7,16.5-19.3c4.3-5,9-10.1,15.4-11.8c1.4-0.2,2.8-0.3,4.1-0.4s2.6-0.1,3.8-0.1h15.6
				L140.9,39.3L140.9,39.3z"/>
			<path class="st1" d="M140.9,58.1h-8.4c-1.8,0-3.8,0-6.1,0.1c-2.3,0-4.5,0.4-6.8,1.1c-1.9,0.6-3.7,1.3-5.4,2.4
				c-3.1,2.1-6.2,4.2-9.3,6.2c-1.6,1-3.2,2.1-4.8,3.1c-13.6,8.8-28.8,17.9-45.7,15.4c-2.3-0.3-4.2-1.1-5.7-2.1c-1.3-1-2.2-2.1-3-3.4
				c-0.8-1.3-1.3-2.7-1.7-4.2c-1-4.5-0.7-9.1,0.1-13.6c0.2-1.5,0.5-2.9,0.8-4.4s0.6-2.9,0.8-4.3c1.6-10.1-5.9-21.5-16.6-20.6
				c-1.6,0.1-3.2,0.4-4.7,0.7s-3,0.8-4.5,1.4C9.9,39.5,2,46.4-6.6,53.1c-2.7,2.2-5.7,3.8-9,4.5c-1.3,0.3-2.7,0.5-4.1,0.5
				c-1.6,0-3.1,0-4.6,0h-13.8V47.7h4.2c6.4,0,12.7,0.8,19.2-0.2c2.1-0.3,4.1-0.8,6-1.5c6.4-2.6,12.4-6,18.4-9.4
				c1.9-1.1,3.9-2.3,5.8-3.4c9.8-5.5,20-9.5,30.2-2.9c1.2,0.9,2.3,2,3.2,3.3c1.1,1.3,1.9,2.6,2.6,4.1s1.1,3,1.4,4.6
				c0.3,1.8,0.4,3.7,0.4,5.5c-0.1,5.5-1.5,10.9-2.5,16.6c-0.5,2.7-0.5,5.3,0.4,7.9c0.4,1.2,1,2.4,1.9,3.5c4.6,5.5,12.9,4.9,19.6,3
				c13-3.8,23.4-12.2,32.9-21.2c1-0.9,2-1.8,3-2.7c3-2.6,6.2-4.9,10.1-6.2c2.2-0.6,4.4-1,6.8-1c2.4,0,4.6,0,6.5,0h9V58.1L140.9,58.1
				z"/>
			<path class="st1" d="M140.9,74.7h-14.2c-1.6,0-3.2,0.1-4.8,0.3c-1.6,0.2-3.2,0.5-4.7,0.9c-0.8,0.2-1.7,0.4-2.4,0.7
				c-2.3,0.8-4.6,1.8-6.9,2.7c-3.9,1.4-7.8,3-11.7,4.5c-1.9,0.8-3.9,1.5-5.9,2.2c-12,4.3-25.8,11-38.5,6.4c-1.8-0.7-3.6-1.5-5.4-2.7
				c-1.4-1-2.6-2-3.7-3.2c-7.7-9-7.1-21.6-8.5-32.8c-0.5-4.4-3.6-8.7-8.3-9C11.4,43.6,2.2,56.2-6,67c-2.8,3.6-6.4,6.6-10.9,7.1
				c-1.9,0.3-3.8,0.5-5.7,0.5c-2.4,0.1-4.6,0.1-6.5,0.1h-9.1V64.3h13.8c1.4,0,3,0,4.6,0c2.5-0.1,4.7-0.7,6.9-1.7
				c1.8-0.9,3.3-1.8,4.8-3.2C2.4,50,12.3,37.8,27.1,37.5c1.7,0,3.2,0.3,4.6,0.9c2.8,1.1,5,3.2,6.6,5.8c0.8,1.3,1.5,2.7,2,4.2
				c0.9,2.7,1.4,5.7,1.1,8.5C40.6,65.2,39,74,42.9,81.7c0.8,1.4,1.7,2.7,2.9,3.8c1.2,1.1,2.6,2,4.2,2.6c1.8,0.6,3.6,1,5.4,1.2
				C71.5,91.7,87.1,82.2,101,75c1.9-1.1,3.8-2.1,5.6-3.2s3.7-2.2,5.6-3.3c1.6-1,3.2-1.8,4.9-2.4s3.4-1.1,5.3-1.4
				c1.8-0.3,3.6-0.5,5.4-0.4h13.1L140.9,74.7L140.9,74.7z"/>
			<path class="st1" d="M140.9,92.7h-14.2c-2.2,0-4.6,0-7.2,0c-1.9,0-3.8,0.1-5.7,0.2s-3.8,0.2-5.7,0.4c-2.7,0.5-5.5,0.9-8.2,1.3
				c-2.7,0.4-5.5,0.7-8.3,1.1c-5.8,0.8-11.7,2-17.5,2.9c-1.9,0.3-3.9,0.6-5.9,0.8c-3.9,0.5-7.9,0.7-11.9,0.5c-2.4-0.1-4.8-0.4-7.3-1
				c-1.3-0.3-2.5-0.8-3.7-1.4c-1.8-0.9-3.3-2-4.8-3.2c-1.5-1.2-2.8-2.5-4.1-4c-1.6-1.8-2.9-4-4.3-6.1c-4.7-7.2-6.4-16-13.9-20.6
				c-1.3-0.8-2.9-0.8-4.3-0.2c-7.5,3.3-10.2,11.4-15,17.9c-2.3,3.2-4.8,6.1-8.2,7.9c-1.1,0.6-2.3,1.2-3.5,1.6
				c-2.2,0.8-4.5,1.3-6.9,1.6c-1.6,0.1-3.1,0.2-4.6,0.2h-13.8V82.4h10.8c2.3,0,4.8,0,7.7-0.2c1.7-0.1,3.2-0.4,4.7-0.9
				c4.2-1.1,7.3-4.1,10-7.7c5.3-7.2,8.9-14.5,16.6-19.7c5.4-3.7,14.5-5.9,17.1,1.7c3.5,10.6,4.6,22.2,11.1,31.4
				c1,1.3,2.2,2.6,3.5,3.7s2.7,2.1,4.3,3c1.3,0.6,2.7,1.2,4.2,1.5c12.4,2.9,24.3-0.9,35.9-4.4c2.1-0.6,4.1-1.2,6.2-1.8
				c2.1-0.6,4.1-1.1,6.2-1.6c2.6-0.8,5.1-1.6,7.7-2.5c2-0.8,4.1-1.2,6.2-1.5c1.8-0.3,3.6-0.6,5.4-0.8c2.7-0.2,5.1-0.2,7.3-0.2h14.2
				L140.9,92.7L140.9,92.7z"/>
			<path class="st1" d="M140.4,89.5c0,0-5.2,1-13.9,2.7c-2.2,0.4-4.6,0.9-7.1,1.4c-1.9,0.4-3.7,0.8-5.5,1.3s-3.7,1-5.5,1.5
				c-2.6,1-5.2,2-7.8,2.8c-2.6,0.9-5.2,1.8-7.9,2.7c-5.6,1.9-11.1,4.2-16.6,6.2c-1.8,0.7-3.7,1.3-5.6,1.9c-3.8,1.2-7.6,2.2-11.6,2.8
				c-2.4,0.4-4.8,0.5-7.4,0.4c-1.3-0.1-2.6-0.3-3.9-0.6c-1.9-0.6-3.7-1.3-5.3-2.2c-1.7-0.9-3.2-2-4.8-3.2c-2-1.5-3.6-3.3-5.4-5.2
				c-6-6.2-9.4-14.4-17.6-17.6c-1.4-0.5-2.9-0.2-4.2,0.7C3.3,90,2.3,98.5-1.2,105.8c-1.7,3.6-3.6,6.9-6.5,9.4c-1,0.8-2,1.6-3.1,2.2
				c-2,1.2-4.2,2.2-6.5,2.9c-1.5,0.4-3,0.8-4.5,1c-8.5,1.7-13.6,2.7-13.6,2.7l-2-10.2c0,0,3.9-0.8,10.5-2.1c2.2-0.4,4.7-0.9,7.5-1.7
				c1.6-0.4,3.1-1.1,4.5-1.8c3.9-1.9,6.4-5.5,8.3-9.4c3.8-8.1,5.9-16,12.5-22.5c4.6-4.7,13.1-8.6,17.1-1.7c5.5,9.7,8.8,20.9,17,28.7
				c1.3,1.1,2.7,2.1,4.1,2.9s3.1,1.6,4.8,2.1c1.4,0.4,2.8,0.6,4.4,0.7c12.7,0.4,23.7-5.6,34.3-11.2c1.9-1,3.8-2,5.7-2.9
				c1.9-1,3.8-1.9,5.8-2.8c2.4-1.2,4.7-2.6,7.1-4c1.8-1.1,3.8-2,5.8-2.7c1.7-0.7,3.4-1.3,5.2-1.8c2.6-0.7,5-1.2,7.2-1.6
				c8.7-1.7,13.9-2.7,13.9-2.7S140.4,89.5,140.4,89.5z"/>
			<path class="st1" d="M140.9,110.9c0,0-5.2,1-13.9,2.7c-2.2,0.4-4.6,0.9-7.1,1.4c-1.9,0.4-3.7,0.8-5.5,1.3s-3.7,1-5.5,1.5
				c-2.6,1-5.2,2-7.8,2.8c-2.6,0.9-5.2,1.8-7.9,2.7c-5.6,1.9-11.1,4.2-16.6,6.2c-1.8,0.7-3.7,1.3-5.6,1.9c-3.8,1.2-7.6,2.2-11.6,2.8
				c-2.4,0.4-4.8,0.5-7.4,0.4c-1.3-0.1-2.6-0.3-3.9-0.6c-1.9-0.6-3.7-1.3-5.3-2.2c-1.7-0.9-3.2-2-4.8-3.1c-2-1.5-3.6-3.3-5.4-5.2
				c-6-6.2-9.4-14.4-17.6-17.6c-1.4-0.5-2.9-0.2-4.2,0.7c-6.8,4.7-7.8,13.2-11.2,20.5c-1.7,3.6-3.6,6.9-6.5,9.4
				c-1,0.8-2,1.6-3.1,2.2c-2,1.2-4.2,2.2-6.5,2.9c-1.5,0.4-3,0.8-4.5,1c-8.5,1.7-13.6,2.7-13.6,2.7l-2-10.2l10.5-2.1
				c2.2-0.4,4.7-0.9,7.5-1.7c1.6-0.4,3.1-1.1,4.5-1.8c3.9-1.9,6.4-5.5,8.3-9.4c3.8-8.1,5.9-16,12.5-22.5c4.6-4.7,13.1-8.6,17.1-1.7
				c5.5,9.7,8.8,20.9,17,28.7c1.3,1.1,2.7,2.1,4.1,2.9c1.5,0.9,3.1,1.6,4.8,2.1c1.4,0.4,2.8,0.6,4.4,0.7
				c12.7,0.4,23.7-5.6,34.3-11.2c1.9-1,3.8-2,5.7-2.9c1.9-1,3.8-1.9,5.8-2.8c2.4-1.2,4.7-2.6,7.1-4c1.8-1.1,3.8-2,5.8-2.7
				c1.7-0.7,3.4-1.3,5.2-1.8c2.6-0.7,5-1.2,7.2-1.6c8.7-1.7,13.9-2.7,13.9-2.7L140.9,110.9L140.9,110.9z"/>
			<path class="st1" d="M140.9-22.5c0,0-4.6,1-12.3,2.7c-1.3,0.3-2.7,0.6-4.1,0.9s-3,0.7-4.6,1.1C106.5-12.4,102.5,3,95.8,15
				c-3.4,6.3-7.1,12.5-13.3,16.1c-1.2,0.6-2.4,1.1-3.7,1.4c-1.8,0.4-3.1-0.6-3.9-2s-1.2-3-1.3-4.7C72.5,12.9,67.7,0.3,59-9.1
				c-1.5-1.1-3.1-2-4.9-2.7c-1.6-0.7-3.2-1.3-4.9-1.8c-7.1-2.7-15-1.1-20.5,4.7C23.3-3,17.6,1.6,11.6,6.1c-1.3,1-2.6,2-3.9,2.9
				c-1.4,0.9-2.8,1.7-4.3,2.5c-8.2,4.2-17.1,4.8-26,4.8c-1.8,0-3.6,0-5.4,0c-1.8,0-3.6,0-5.4,0l-2.2-10c1.6-0.1,3.2-0.1,4.8-0.1
				c9,0.4,18.2,0.8,27-1.4C-2,4.3-0.4,3.7,1.2,3C11.6-1.6,20.4-8.5,29.3-15.7c6.5-5.3,15.1-5.1,22.7-2.8c2.3,0.6,4.6,1.3,6.8,2.2
				c8.8,4.5,12.2,14.4,18.6,21.6c3.8,4.3,9.3,1.2,12.1-2.6c8.4-11.4,13.5-27.2,28.3-30.9c2.6-0.6,4.9-1.1,7.1-1.5l13.9-3L140.9-22.5
				L140.9-22.5z"/>
		</g>
	</g>
</g>
</svg>
